<?xml version="1.0" standalone="no"?>
<!DOCTYPE svg PUBLIC "-//W3C//DTD SVG 20010904//EN"
 "http://www.w3.org/TR/2001/REC-SVG-20010904/DTD/svg10.dtd">
<svg version="1.0" xmlns="http://www.w3.org/2000/svg"
 width="487.000000pt" height="487.000000pt" viewBox="0 0 487.000000 487.000000"
 preserveAspectRatio="xMidYMid meet">
<metadata>
Created by potrace 1.14, written by Peter Selinger 2001-2017
</metadata>
<g transform="translate(0.000000,487.000000) scale(0.100000,-0.100000)"
fill="#000000" stroke="none">
<path d="M2858 4345 c-1 -1 -48 -5 -103 -9 -87 -5 -123 -9 -195 -20 -15 -2
-142 -34 -170 -43 -8 -2 -16 -4 -17 -4 -2 0 -23 -8 -48 -19 -25 -11 -45 -17
-45 -14 0 2 -10 -1 -22 -8 -13 -7 -26 -11 -30 -10 -5 1 -8 -3 -8 -9 0 -6 -6
-9 -14 -6 -8 3 -16 3 -18 -1 -2 -4 -23 -17 -48 -30 -107 -56 -146 -78 -164
-94 -11 -10 -28 -20 -38 -24 -10 -3 -18 -10 -18 -16 0 -6 -3 -9 -6 -5 -4 3
-12 1 -19 -6 -7 -7 -33 -28 -56 -47 -58 -47 -219 -207 -219 -217 0 -5 -9 -15
-20 -23 -11 -8 -20 -18 -20 -23 0 -4 -11 -20 -24 -34 -13 -14 -30 -37 -38 -52
-7 -14 -16 -30 -21 -36 -37 -49 -120 -204 -122 -230 -1 -5 -6 -19 -12 -30 -11
-20 -61 -174 -68 -208 -2 -10 -7 -28 -11 -40 -4 -12 -8 -31 -10 -42 -9 -84
-16 -132 -20 -144 -5 -16 -5 -219 1 -271 5 -51 14 -112 20 -137 3 -13 7 -33
10 -45 2 -12 12 -29 20 -37 9 -9 15 -11 14 -6 -3 11 10 72 21 95 42 93 125
250 131 250 5 0 9 6 9 13 0 7 13 27 30 45 16 18 28 34 27 35 -7 7 155 172 215
218 23 19 45 37 46 41 2 5 9 8 15 8 6 0 18 6 26 14 41 36 209 119 305 150 107
35 167 50 251 63 74 11 372 2 395 -12 3 -2 23 -6 45 -10 58 -10 59 -10 73 -18
6 -5 12 -6 12 -2 0 3 14 -2 31 -11 23 -11 40 -35 65 -89 19 -41 34 -80 34 -89
0 -8 4 -17 8 -20 7 -4 18 -47 51 -201 3 -16 6 -51 6 -77 0 -27 4 -48 8 -48 5
0 5 -5 2 -11 -4 -5 -8 -40 -10 -77 -2 -37 -6 -84 -10 -106 -4 -21 -8 -48 -9
-60 -1 -12 -5 -26 -8 -31 -3 -6 -9 -25 -13 -43 -8 -37 -72 -193 -95 -232 -29
-48 -35 -57 -63 -99 -26 -39 -144 -162 -194 -203 -32 -25 -124 -81 -168 -102
-22 -10 -47 -22 -55 -26 -15 -7 -115 -38 -155 -47 -29 -6 -159 -14 -325 -18
-207 -5 -428 -19 -482 -31 -15 -3 -42 -7 -60 -9 -120 -16 -351 -88 -369 -117
-3 -5 -9 -9 -13 -8 -20 6 -166 -108 -166 -129 0 -6 -4 -11 -9 -11 -10 0 -57
-66 -78 -110 -34 -69 -55 -143 -57 -197 -1 -13 -3 -23 -6 -23 -4 0 -4 -160 1
-230 3 -50 22 -146 29 -154 6 -6 21 2 38 20 37 37 83 75 113 93 31 19 156 81
162 81 3 0 18 5 34 12 15 6 30 12 33 13 3 1 18 7 33 13 16 7 33 12 38 12 5 0
34 9 64 19 30 11 55 17 55 15 0 -3 8 0 18 5 9 5 31 12 47 15 17 3 48 10 70 15
49 12 106 23 123 24 6 0 12 3 12 6 0 3 15 6 33 7 17 0 48 4 67 8 44 8 76 14
120 20 19 2 49 7 65 10 17 2 55 7 85 11 30 3 73 9 95 12 22 3 64 6 92 7 29 1
53 3 53 6 0 3 30 6 68 7 69 1 693 14 725 14 9 0 17 3 17 7 0 4 19 8 43 9 23 1
49 3 57 6 8 2 33 8 55 12 55 12 55 12 58 15 2 1 11 4 52 14 11 2 32 9 46 14
15 6 30 8 33 5 3 -4 6 -2 6 4 0 5 6 10 14 10 21 0 224 101 289 144 32 22 62
39 67 39 5 0 10 3 12 8 2 4 26 25 53 47 28 22 56 45 63 52 7 7 18 13 24 13 6
0 9 3 6 6 -4 3 20 29 52 57 32 29 59 58 59 65 1 6 5 12 9 12 9 0 127 155 163
215 42 70 47 79 75 135 45 93 63 138 57 144 -4 3 -2 6 3 6 9 0 40 88 36 103
-1 4 1 7 5 7 5 0 9 10 10 23 2 23 10 62 13 62 1 0 4 11 6 25 3 14 9 41 13 60
5 19 9 42 9 50 0 8 3 42 7 75 14 117 5 331 -20 465 -4 21 -48 190 -59 225 -2
6 -8 21 -13 35 -6 14 -10 27 -10 30 0 3 -6 16 -13 30 -8 14 -15 27 -16 30 -1
3 -5 15 -9 28 -4 12 -12 22 -18 22 -6 0 -8 2 -5 6 3 3 -5 24 -18 47 -13 23
-27 50 -30 60 -4 9 -10 17 -15 17 -5 0 -9 7 -9 15 0 8 -5 15 -12 15 -6 0 -9 3
-5 6 3 4 1 12 -6 20 -30 34 -37 44 -30 44 4 0 3 4 -3 8 -5 4 -23 25 -39 47
-35 48 -218 232 -259 260 -16 11 -42 32 -59 47 -17 15 -34 25 -38 23 -4 -3 -9
2 -13 10 -3 8 -12 15 -21 15 -8 0 -15 3 -15 8 0 4 -21 18 -47 32 -27 13 -51
29 -55 35 -5 6 -8 6 -8 0 0 -5 -4 -4 -8 3 -5 7 -19 14 -32 17 -12 2 -32 12
-42 22 -11 10 -23 17 -27 17 -3 -1 -17 3 -31 9 -14 6 -27 11 -30 12 -12 3 -86
27 -100 32 -8 4 -18 7 -22 8 -5 2 -9 3 -10 5 -2 1 -12 3 -23 4 -11 2 -38 8
-60 14 -38 11 -62 15 -145 28 -19 2 -73 7 -120 10 -47 3 -90 7 -97 9 -6 2 -13
2 -15 0z"/>
</g>
</svg>
